<?xml version="1.0" encoding="utf-8"?>
<!-- Generator: Adobe Illustrator 28.1.0, SVG Export Plug-In . SVG Version: 6.00 Build 0)  -->
<svg version="1.1" id="Layer_1" xmlns="http://www.w3.org/2000/svg" xmlns:xlink="http://www.w3.org/1999/xlink" x="0px" y="0px"
	 viewBox="0 0 132 132" style="enable-background:new 0 0 132 132;" xml:space="preserve">
<style type="text/css">
	.st0{fill:#231F20;}
</style>
<g id="Layer_2_00000025419734313096256640000006619398034406719917_">
	<g id="LOGO">
		<rect x="49" y="87.3" transform="matrix(0.7071 -0.7071 0.7071 0.7071 -36.421 87.9424)" class="st0" width="77.9" height="1.2"/>
		<polygon class="st0" points="31.6,92.2 31.4,92.1 31.4,92.5 31.4,92.7 31.4,93.1 38.8,100.6 38.9,100.6 39.3,100.6 39.5,100.6 
			39.9,100.6 		"/>
		<polygon class="st0" points="85,31.4 85,31.4 84.5,31.4 84.3,31.4 83.9,31.4 100.4,48 100.6,48.1 100.6,47.7 100.6,47.5 100.6,47 
					"/>
		<polygon class="st0" points="76.8,31.4 76.8,31.4 76.4,31.4 76.2,31.4 75.8,31.4 100.4,56.1 100.6,56.2 100.6,55.8 100.6,55.6 
			100.6,55.2 		"/>
		<polygon class="st0" points="68.7,31.4 68.7,31.4 68.2,31.4 68,31.4 67.6,31.4 100.4,64.3 100.6,64.4 100.6,64 100.6,63.8 
			100.6,63.3 		"/>
		<polygon class="st0" points="60.5,31.4 60.1,31.4 59.9,31.4 59.4,31.4 99,70.9 99,71 99.2,70.8 99.3,70.7 99.5,70.5 		"/>
		<polygon class="st0" points="52.3,31.4 51.9,31.4 51.7,31.4 51.3,31.4 94.9,75 94.9,75.1 95.1,74.9 95.2,74.7 95.5,74.5 		"/>
		<polygon class="st0" points="44.2,31.4 43.8,31.4 43.6,31.4 43.1,31.4 90.8,79.1 90.8,79.1 91.1,78.9 91.2,78.8 91.4,78.6 		"/>
		<polygon class="st0" points="36,31.4 35.6,31.4 35.4,31.4 35,31.4 86.7,83.2 86.8,83.2 87,83 87.1,82.9 87.3,82.7 		"/>
		<polygon class="st0" points="31.4,35 31.4,35.4 31.4,35.6 31.4,36 82.6,87.2 82.7,87.3 82.9,87.1 83,87 83.2,86.8 		"/>
		<polygon class="st0" points="31.4,43.1 31.4,43.6 31.4,43.8 31.4,44.2 78.6,91.3 78.6,91.4 78.8,91.2 78.9,91.1 79.1,90.8 		"/>
		<polygon class="st0" points="74.9,95.1 75.1,94.9 31.4,51.3 31.4,51.7 31.4,51.9 31.4,52.3 74.5,95.4 74.5,95.5 74.7,95.2 
			74.7,95.2 74.8,95.2 74.9,95.1 		"/>
		<polygon class="st0" points="31.4,59.4 31.4,59.9 31.4,60.1 31.4,60.5 70.4,99.5 70.5,99.5 70.7,99.3 70.8,99.2 71,99 		"/>
		<polygon class="st0" points="31.6,67.7 31.4,67.6 31.4,68 31.4,68.2 31.4,68.7 63.3,100.6 63.3,100.6 63.8,100.6 64,100.6 
			64.4,100.6 		"/>
		<polygon class="st0" points="31.6,75.9 31.4,75.8 31.4,76.2 31.4,76.4 31.4,76.8 55.2,100.6 55.2,100.6 55.6,100.6 55.8,100.6 
			56.2,100.6 		"/>
		<polygon class="st0" points="31.6,84 31.4,83.9 31.4,84.3 31.4,84.5 31.4,85 47,100.6 47,100.6 47.5,100.6 47.7,100.6 48.1,100.6 
					"/>
		<polygon class="st0" points="93.2,31.4 93.1,31.4 92.7,31.4 92.5,31.4 92.1,31.4 100.4,39.8 100.6,39.9 100.6,39.5 100.6,39.3 
			100.6,38.9 		"/>
		<rect x="26.4" y="6" class="st0" width="1.2" height="120"/>
		<rect x="104.4" y="6" class="st0" width="1.2" height="120"/>
		<rect x="6" y="26.4" class="st0" width="120" height="1.2"/>
		<rect x="6" y="104.4" class="st0" width="120" height="1.2"/>
	</g>
</g>
</svg>
