<?xml version="1.0" encoding="utf-8"?>
<!-- Generator: Adobe Illustrator 28.1.0, SVG Export Plug-In . SVG Version: 6.00 Build 0)  -->
<svg version="1.1" id="Layer_1" xmlns="http://www.w3.org/2000/svg" xmlns:xlink="http://www.w3.org/1999/xlink" x="0px" y="0px"
	 viewBox="0 0 592 137" style="enable-background:new 0 0 592 137;" xml:space="preserve">
<style type="text/css">
	.st0{fill:#231F20;}
	.st1{fill:#F15A29;}
	.st2{fill:#F7941D;stroke:#231F20;stroke-miterlimit:10;}
</style>
<g>
	<g>
		<polygon class="st0" points="313.7,85.8 313.7,27 321.9,27 321.9,79.9 336.9,79.9 336.9,85.8 		"/>
		<path class="st0" d="M342.4,37.7v-8.2h7.8v8.2H342.4z M342.4,85.9v-42h7.8v41.9L342.4,85.9z"/>
		<polygon class="st0" points="363.9,85.8 355.6,43.9 363.5,43.9 368.6,77.6 373.9,43.9 381.4,43.9 373.4,85.8 		"/>
		<path class="st0" d="M398,86.4c-2.7,0.2-5.3-0.5-7.6-1.9c-1.9-1.4-3.2-3.4-3.7-5.7c-0.8-3-1.1-6.1-1.1-9.2v-9.5
			c-0.1-3.1,0.3-6.3,1.1-9.3c0.6-2.3,1.9-4.2,3.8-5.6c2.3-1.4,4.9-2,7.5-1.9c2.8-0.2,5.5,0.6,7.8,2.2c1.8,1.7,3,3.9,3.3,6.3
			c0.6,3.2,0.8,6.5,0.8,9.7V65h-16.6v8.5c0,1.4,0.1,2.8,0.5,4.1c0.2,0.9,0.8,1.7,1.5,2.4c0.8,0.5,1.8,0.8,2.7,0.8
			c1,0.1,1.9-0.2,2.6-0.8c0.7-0.7,1.1-1.5,1.3-2.4c0.2-1.2,0.3-2.4,0.3-3.7v-2.6h7.6v1.6c0.2,3.5-0.7,7-2.7,9.9
			C405.4,85.2,402.3,86.4,398,86.4z M393.4,60.8h9V57c0-1.5-0.1-3-0.3-4.5c-0.1-1-0.5-1.9-1.2-2.7c-0.8-0.7-1.8-1-2.9-0.9
			c-1-0.1-2.1,0.2-2.9,0.9c-0.8,0.8-1.2,1.8-1.3,2.9c-0.3,1.9-0.4,3.8-0.4,5.7L393.4,60.8z"/>
		<path class="st1" d="M449,86.5c-3.4,0.2-6.8-0.7-9.7-2.6c-2.3-1.8-4-4.3-4.7-7.1c-0.9-3.2-1.4-6.5-1.3-9.9V46.2
			c-0.1-3.5,0.4-7,1.3-10.4c0.8-2.8,2.5-5.2,4.8-6.8c2.9-1.8,6.2-2.6,9.6-2.4c3.1-0.2,6.1,0.5,8.8,2c2.2,1.3,3.8,3.4,4.6,5.8
			c1,2.9,1.5,6,1.4,9.1v4.7H456v-4.1c0-1.9-0.1-3.9-0.3-5.8c-0.1-1.5-0.7-2.8-1.8-3.9c-1.4-1.1-3.1-1.5-4.9-1.4
			c-1.8-0.2-3.6,0.4-5.1,1.5c-1.1,1.1-1.9,2.6-2.1,4.2c-0.3,2.1-0.5,4.2-0.5,6.4v23.3c-0.1,2.3,0.2,4.7,0.7,7
			c0.3,1.5,1.2,2.8,2.4,3.7c1.4,0.8,2.9,1.2,4.5,1.1c1.7,0.2,3.5-0.4,4.8-1.5c1-1.1,1.7-2.6,1.8-4.1c0.3-2,0.4-4.1,0.4-6.1V64h7.8
			v4.4c0.1,3.2-0.4,6.4-1.3,9.5c-0.7,2.6-2.3,4.8-4.5,6.4C455.3,85.9,452.1,86.7,449,86.5z"/>
		<path class="st1" d="M468.4,85.8L480.9,27h7.9l12.6,58.8h-7.8L490.9,71h-12l-2.8,14.8H468.4z M480,65.1h9.8l-4.9-26.5L480,65.1z"
			/>
		<path class="st1" d="M507.3,85.8V27h12.8c3.6-0.2,7.1,0.5,10.3,2c2.5,1.3,4.4,3.4,5.4,6c1.2,3.2,1.7,6.6,1.6,10v21.6
			c0.1,3.6-0.5,7.1-1.6,10.5c-1,2.7-2.8,5-5.3,6.5c-3,1.6-6.4,2.4-9.8,2.2L507.3,85.8z M515.5,80h4.7c2.3,0.2,4.5-0.4,6.4-1.7
			c1.3-1.4,2.1-3.2,2.2-5.1c0.3-2.7,0.4-5.4,0.4-8.1V46c0-2.5-0.2-5-0.6-7.4c-0.2-1.7-1.2-3.2-2.5-4.1c-1.9-0.9-4-1.4-6.1-1.2h-4.5
			L515.5,80z"/>
	</g>
	<g>
		<g>
			<polygon class="st0" points="80,94.7 79.9,94.6 79.9,95 79.9,95.2 79.9,95.6 87.3,103.1 87.3,103.1 87.8,103.1 88,103.1 
				88.4,103.1 			"/>
			<polygon class="st0" points="133.5,33.9 133.4,33.9 133,33.9 132.8,33.9 132.4,33.9 148.9,50.5 149,50.6 149,50.2 149,50 
				149,49.5 			"/>
			<polygon class="st0" points="125.3,33.9 125.3,33.9 124.9,33.9 124.6,33.9 124.2,33.9 148.9,58.6 149,58.7 149,58.3 149,58.1 
				149,57.7 			"/>
			<polygon class="st0" points="117.1,33.9 117.1,33.9 116.7,33.9 116.5,33.9 116.1,33.9 148.9,66.8 149,66.9 149,66.5 149,66.3 
				149,65.8 			"/>
			<polygon class="st0" points="109,33.9 108.5,33.9 108.3,33.9 107.9,33.9 147.4,73.4 147.5,73.5 147.7,73.3 147.8,73.2 148,73 			
				"/>
			<polygon class="st0" points="100.8,33.9 100.4,33.9 100.2,33.9 99.7,33.9 143.3,77.5 143.4,77.6 143.6,77.4 143.7,77.2 143.9,77 
							"/>
			<polygon class="st0" points="92.6,33.9 92.2,33.9 92,33.9 91.6,33.9 139.3,81.6 139.3,81.6 139.5,81.4 139.6,81.3 139.8,81.1 			
				"/>
			<polygon class="st0" points="84.5,33.9 84.1,33.9 83.9,33.9 83.4,33.9 135.2,85.7 135.2,85.7 135.4,85.5 135.5,85.4 135.8,85.2 
							"/>
			<polygon class="st0" points="79.9,37.5 79.9,37.9 79.9,38.1 79.9,38.5 131.1,89.7 131.2,89.8 131.4,89.6 131.5,89.5 131.7,89.3 
							"/>
			<polygon class="st0" points="79.9,45.6 79.9,46.1 79.9,46.3 79.9,46.7 127,93.8 127.1,93.9 127.3,93.7 127.4,93.6 127.6,93.3 			
				"/>
			<polygon class="st0" points="123.3,97.6 123.5,97.4 79.9,53.8 79.9,54.2 79.9,54.4 79.9,54.8 122.9,97.9 123,98 123.2,97.7 
				123.2,97.7 123.3,97.7 123.3,97.6 			"/>
			<polygon class="st0" points="79.9,61.9 79.9,62.4 79.9,62.6 79.9,63 118.9,102 118.9,102 119.1,101.8 119.2,101.7 119.4,101.5 
							"/>
			<polygon class="st0" points="80,70.2 79.9,70.1 79.9,70.5 79.9,70.7 79.9,71.2 111.8,103.1 111.8,103.1 112.2,103.1 112.4,103.1 
				112.9,103.1 			"/>
			<polygon class="st0" points="80,78.4 79.9,78.3 79.9,78.7 79.9,78.9 79.9,79.3 103.6,103.1 103.6,103.1 104.1,103.1 104.3,103.1 
				104.7,103.1 			"/>
			<polygon class="st0" points="80,86.5 79.9,86.4 79.9,86.8 79.9,87 79.9,87.5 95.5,103.1 95.5,103.1 95.9,103.1 96.1,103.1 
				96.5,103.1 			"/>
			<polygon class="st0" points="141.6,33.9 141.6,33.9 141.2,33.9 141,33.9 140.5,33.9 148.9,42.3 149,42.4 149,42 149,41.8 
				149,41.4 			"/>
			
				<rect x="97.4" y="89.8" transform="matrix(0.7071 -0.7071 0.7071 0.7071 -23.9952 122.9411)" class="st0" width="77.9" height="1.2"/>
			<rect x="54.5" y="28.9" class="st0" width="120" height="1.2"/>
			<rect x="54.5" y="106.9" class="st0" width="120" height="1.2"/>
			<rect x="74.9" y="8.5" class="st0" width="1.2" height="120"/>
			<rect x="152.9" y="8.5" class="st0" width="1.2" height="120"/>
		</g>
		<g>
			<path class="st2" d="M206,113.5c0.1,2.4-0.8,4.8-2.5,6.6c-1.7,1.8-3.6,2.6-5.8,2.6c-2,0-3.9-0.8-5.4-2.2c-2-1.8-3-4.2-3-7
				s1-5.2,3-7.1c1.4-1.4,3.4-2.2,5.4-2.2c2.2,0,4.1,0.9,5.8,2.6C205.2,108.7,206.1,111.1,206,113.5z M203,113.5
				c0.1-1.7-0.5-3.3-1.6-4.5c-0.9-1.1-2.3-1.8-3.7-1.8c-1.4,0-2.8,0.7-3.7,1.8c-2.2,2.6-2.2,6.4,0,8.9c0.9,1.1,2.3,1.8,3.7,1.8
				c1.4,0,2.8-0.7,3.7-1.8C202.5,116.8,203.1,115.2,203,113.5z"/>
			<path class="st2" d="M213,109.2v1c0.5-0.5,1.1-0.8,1.8-1c0.7-0.2,1.4-0.4,2.1-0.4c1.8,0,3.1,0.5,4.2,1.6c0.8,0.9,1.3,2.2,1.2,3.4
				v5.5c0.5,0,1,0.1,1.4,0.4c0.3,0.3,0.5,0.7,0.4,1.1c0,0.4-0.2,0.8-0.5,1.1c-0.4,0.3-1,0.5-1.5,0.4h-2.7c-0.5,0.1-1.1-0.1-1.5-0.4
				c-0.6-0.6-0.6-1.5,0-2.1c0,0,0,0,0,0c0.4-0.3,0.9-0.5,1.4-0.4v-5.6c0-0.5-0.1-1-0.5-1.4c-0.6-0.4-1.3-0.6-2.1-0.6
				c-0.6,0-1.2,0.1-1.8,0.4c-0.7,0.4-1.4,1-2,1.7v5.5c0.5,0,1,0,1.5,0.2c0.5,0.3,0.7,0.8,0.7,1.3c0,0.4-0.2,0.8-0.5,1.1
				c-0.4,0.3-1,0.5-1.5,0.4h-3.4c-0.5,0.1-1.1-0.1-1.5-0.4c-0.3-0.3-0.5-0.7-0.5-1.1c0-0.5,0.3-1,0.7-1.3c0.5-0.2,1-0.3,1.5-0.2
				v-7.2c-0.5,0-1-0.1-1.4-0.4c-0.3-0.3-0.5-0.7-0.4-1.1c0-0.4,0.2-0.8,0.5-1.1c0.4-0.3,1-0.5,1.5-0.4L213,109.2z"/>
			<path class="st2" d="M235.9,103.5v15.8h3.6c0.5-0.1,1.1,0.1,1.5,0.4c0.3,0.3,0.5,0.7,0.5,1.1c0,0.4-0.2,0.8-0.5,1.1
				c-0.4,0.3-1,0.5-1.5,0.4h-10.1c-0.5,0.1-1.1-0.1-1.5-0.4c-0.3-0.3-0.5-0.7-0.5-1.1c0-0.4,0.2-0.8,0.5-1.1c0.4-0.3,1-0.5,1.5-0.4
				h3.6v-12.9h-2.4c-0.5,0-1.1-0.1-1.5-0.4c-0.6-0.6-0.6-1.5,0-2.1c0,0,0,0,0,0c0.4-0.3,1-0.5,1.5-0.4L235.9,103.5z"/>
			<path class="st2" d="M254.3,109.2v10.2h3.6c0.5-0.1,1.1,0.1,1.5,0.4c0.3,0.3,0.5,0.7,0.5,1.1c0,0.4-0.2,0.8-0.5,1.1
				c-0.4,0.3-1,0.5-1.5,0.4h-10.1c-0.5,0.1-1.1-0.1-1.5-0.4c-0.3-0.3-0.5-0.7-0.5-1.1c0-0.4,0.2-0.8,0.5-1.1c0.4-0.3,1-0.5,1.5-0.4
				h3.6v-7.2H249c-0.5,0-1.1-0.1-1.5-0.4c-0.6-0.6-0.6-1.5,0-2.1c0,0,0,0,0,0c0.4-0.3,1-0.5,1.5-0.4H254.3z M253.9,103.5v3.1h-3.5
				v-3.1H253.9z"/>
			<path class="st2" d="M268.3,109.2v1c0.5-0.5,1.1-0.8,1.8-1c0.7-0.2,1.4-0.4,2.1-0.4c1.8,0,3.1,0.5,4.2,1.6
				c0.8,0.9,1.3,2.2,1.2,3.4v5.5c0.5,0,1,0.1,1.4,0.4c0.3,0.3,0.5,0.7,0.4,1.1c0,0.4-0.2,0.8-0.5,1.1c-0.4,0.3-1,0.5-1.5,0.4h-2.7
				c-0.5,0.1-1.1-0.1-1.5-0.4c-0.6-0.6-0.6-1.5,0-2.1c0,0,0,0,0,0c0.4-0.3,0.9-0.5,1.4-0.4v-5.6c0-0.5-0.1-1-0.5-1.4
				c-0.6-0.4-1.3-0.6-2.1-0.6c-0.6,0-1.2,0.1-1.8,0.4c-0.7,0.5-1.4,1-2,1.7v5.5c0.5,0,1,0,1.5,0.2c0.5,0.3,0.7,0.8,0.7,1.3
				c0,0.4-0.2,0.8-0.5,1.1c-0.4,0.3-1,0.5-1.5,0.4h-3.4c-0.5,0.1-1.1-0.1-1.5-0.4c-0.3-0.3-0.5-0.7-0.5-1.1c0-0.5,0.3-1,0.7-1.3
				c0.5-0.2,1-0.3,1.5-0.2v-7.2c-0.5,0-1-0.1-1.4-0.4c-0.3-0.3-0.5-0.7-0.4-1.1c0-0.4,0.2-0.8,0.5-1.1c0.4-0.3,1-0.5,1.5-0.4
				L268.3,109.2z"/>
			<path class="st2" d="M297.1,117.2h-12.2c0.3,0.8,0.9,1.4,1.6,1.9c1,0.5,2.1,0.8,3.2,0.7c1.5-0.1,3-0.3,4.4-0.7
				c0.5-0.2,1-0.2,1.6-0.3c0.4,0,0.7,0.1,1,0.4c0.3,0.3,0.4,0.7,0.4,1.1c0,0.4-0.1,0.7-0.4,1c-0.4,0.4-1.3,0.7-2.8,1
				c-1.4,0.3-2.9,0.5-4.3,0.5c-2.4,0-4.3-0.7-5.7-2c-1.4-1.3-2.2-3.1-2.1-4.9c-0.1-2,0.8-3.8,2.3-5.1c1.5-1.3,3.4-2,5.3-2
				c1.1,0,2.3,0.2,3.3,0.6c0.8,0.3,1.6,0.8,2.3,1.4c0.7,0.8,1.3,1.7,1.7,2.6c0.3,0.8,0.5,1.7,0.5,2.6L297.1,117.2z M293.8,114.3
				c-0.4-0.8-1-1.5-1.8-1.9c-1.6-0.8-3.6-0.8-5.2,0c-0.8,0.5-1.4,1.1-1.8,1.9H293.8z"/>
			<path class="st2" d="M331.1,105.5c0.2-0.2,0.4-0.4,0.6-0.6c0.2-0.1,0.5-0.2,0.7-0.2c0.4,0,0.8,0.2,1.1,0.4c0.3,0.4,0.5,1,0.4,1.5
				v2.5c0.1,0.5-0.1,1.1-0.4,1.5c-0.3,0.3-0.7,0.5-1.1,0.5c-0.3,0-0.7-0.1-1-0.3c-0.3-0.3-0.5-0.8-0.5-1.2c0-0.3-0.2-0.7-0.4-0.9
				c-0.5-0.5-1-0.8-1.6-1c-0.7-0.3-1.4-0.4-2.1-0.4c-0.9,0-1.7,0.2-2.4,0.6c-0.8,0.4-1.5,1.1-2,1.9c-0.6,0.9-0.9,2-0.9,3.1v1.9
				c0,1.4,0.5,2.7,1.6,3.6c1,1,2.5,1.4,4.3,1.4c1,0,1.9-0.1,2.8-0.4c0.5-0.2,1-0.6,1.4-1c0.2-0.2,0.5-0.4,0.7-0.6
				c0.2-0.1,0.4-0.1,0.6-0.1c0.8,0,1.5,0.7,1.5,1.5c0,0.5-0.3,1-0.6,1.3c-0.6,0.7-1.4,1.2-2.3,1.6c-1.3,0.5-2.7,0.8-4.1,0.8
				c-1.6,0-3.3-0.3-4.8-1.1c-1.2-0.6-2.2-1.6-2.9-2.7c-0.8-1.2-1.2-2.6-1.2-4.1v-2c0-1.5,0.4-3,1.1-4.3c0.7-1.3,1.7-2.4,3-3.1
				c1.2-0.7,2.6-1.1,4.1-1.1c0.8,0,1.6,0.1,2.4,0.3C329.7,104.8,330.4,105.1,331.1,105.5z"/>
			<path class="st2" d="M348.5,117.5h-7.2l-0.7,1.8h0.7c0.5-0.1,1.1,0.1,1.5,0.4c0.3,0.3,0.5,0.7,0.5,1.1c0,0.4-0.2,0.8-0.5,1.1
				c-0.4,0.3-1,0.5-1.5,0.4h-4c-0.5,0.1-1.1-0.1-1.5-0.4c-0.3-0.3-0.5-0.7-0.5-1.1c0-0.4,0.2-0.8,0.5-1.1c0.5-0.3,1-0.5,1.6-0.4
				l4.7-11.6H340c-0.5,0.1-1.1-0.1-1.5-0.4c-0.6-0.6-0.6-1.5,0-2.1c0,0,0,0,0,0c0.4-0.3,1-0.5,1.5-0.4h6.4l5.9,14.6
				c0.5,0,0.9,0,1.4,0.2c0.4,0.3,0.7,0.8,0.7,1.3c0,0.4-0.2,0.8-0.4,1.1c-0.4,0.3-1,0.5-1.5,0.4h-4c-0.5,0.1-1.1-0.1-1.5-0.4
				c-0.3-0.3-0.5-0.7-0.5-1.1c0-0.4,0.2-0.8,0.5-1.1c0.4-0.3,1-0.5,1.5-0.4h0.7L348.5,117.5z M347.2,114.6l-2.4-5.9l-2.4,5.9
				L347.2,114.6z"/>
			<path class="st2" d="M356.6,119.3v-11.6c-0.5,0-1-0.1-1.4-0.4c-0.3-0.3-0.5-0.7-0.4-1.1c0-0.4,0.2-0.8,0.5-1.1
				c0.4-0.3,1-0.5,1.5-0.4h6.2c1,0,1.9,0.2,2.8,0.5c0.8,0.3,1.6,0.8,2.2,1.4c0.5,0.5,0.9,1.1,1.3,1.7c0.4,0.7,0.8,1.4,1,2.2
				c0.2,0.9,0.4,1.7,0.3,2.6v1.4c0,1.1-0.2,2.3-0.6,3.3c-0.4,0.9-0.9,1.7-1.7,2.4c-0.6,0.5-1.2,1-1.9,1.4c-1.2,0.5-2.5,0.7-3.8,0.7
				h-6c-0.5,0.1-1.1-0.1-1.5-0.4c-0.6-0.6-0.6-1.5,0-2.1c0,0,0,0,0,0C355.6,119.4,356.1,119.3,356.6,119.3z M359.6,119.3h3.2
				c0.9,0.1,1.8-0.1,2.7-0.5c0.7-0.4,1.3-1,1.8-1.7c0.4-0.8,0.6-1.7,0.6-2.7v-1.4c0-0.9-0.2-1.7-0.5-2.5c-0.4-0.9-1.1-1.7-1.9-2.3
				c-0.8-0.4-1.7-0.6-2.6-0.6h-3.1L359.6,119.3z"/>
			<path class="st2" d="M398.8,107.7v11.6h6.4v-2.8c-0.1-0.5,0.1-1.1,0.4-1.5c0.3-0.3,0.7-0.5,1.1-0.5c0.4,0,0.8,0.2,1.1,0.5
				c0.3,0.4,0.5,1,0.4,1.5v5.8h-14.1c-0.5,0.1-1.1-0.1-1.5-0.4c-0.3-0.3-0.5-0.7-0.5-1.1c0-0.4,0.2-0.8,0.5-1.1
				c0.4-0.3,1-0.5,1.5-0.4h1.7v-11.6h-1.7c-0.5,0.1-1.1-0.1-1.5-0.4c-0.6-0.6-0.6-1.5,0-2.1c0,0,0,0,0,0c0.4-0.3,1-0.5,1.5-0.4h6.4
				c0.5,0,1.1,0.1,1.5,0.4c0.3,0.3,0.5,0.7,0.5,1.1c0,0.4-0.2,0.8-0.5,1.1c-0.4,0.3-1,0.5-1.5,0.4H398.8z"/>
			<path class="st2" d="M425.9,117.2h-12.2c0.3,0.8,0.9,1.4,1.6,1.9c1,0.5,2.1,0.8,3.2,0.7c1.5-0.1,3-0.3,4.4-0.7
				c0.5-0.2,1-0.2,1.6-0.3c0.4,0,0.7,0.1,1,0.4c0.3,0.3,0.4,0.7,0.4,1.1c0,0.4-0.2,0.7-0.4,1c-0.4,0.4-1.3,0.7-2.8,1
				c-1.4,0.3-2.9,0.5-4.3,0.5c-2.4,0-4.3-0.7-5.7-2c-1.4-1.3-2.2-3.1-2.1-4.9c-0.1-2,0.8-3.8,2.3-5.1c1.5-1.3,3.4-2,5.3-2
				c1.1,0,2.3,0.2,3.3,0.6c0.8,0.3,1.6,0.8,2.3,1.4c0.7,0.8,1.3,1.7,1.7,2.6c0.3,0.8,0.5,1.7,0.5,2.6L425.9,117.2z M422.6,114.3
				c-0.4-0.8-1-1.5-1.8-1.9c-1.6-0.8-3.6-0.8-5.2,0c-0.8,0.5-1.4,1.1-1.8,1.9H422.6z"/>
			<path class="st2" d="M439.5,122.3v-0.7c-0.8,0.4-1.6,0.7-2.5,0.9c-0.8,0.2-1.6,0.3-2.4,0.3c-1.4,0.1-2.8-0.4-3.9-1.3
				c-1-0.8-1.5-1.8-1.5-2.8c0-1.2,0.6-2.4,1.9-3.5c1.3-1.1,3-1.6,5.3-1.6c1,0,2.1,0.1,3.1,0.3v-0.7c0-0.4-0.2-0.8-0.6-1.1
				c-0.4-0.3-1.1-0.4-2.2-0.4c-1.2,0-2.3,0.2-3.4,0.5c-0.4,0.1-0.8,0.2-1.2,0.2c-0.4,0-0.7-0.1-1-0.4c-0.3-0.3-0.4-0.7-0.4-1.1
				c0-0.2,0-0.4,0.1-0.7c0.1-0.2,0.2-0.3,0.4-0.4c0.3-0.2,0.7-0.3,1.1-0.4c0.7-0.2,1.5-0.4,2.2-0.5c0.7-0.1,1.4-0.2,2.1-0.2
				c1.8,0,3.3,0.4,4.3,1.2c1,0.8,1.6,2,1.5,3.3v6.1h0.5c0.5-0.1,1.1,0.1,1.5,0.4c0.3,0.3,0.5,0.7,0.5,1.1c0,0.4-0.2,0.8-0.5,1.1
				c-0.4,0.3-1,0.5-1.5,0.4L439.5,122.3z M439.5,117c-1.1-0.2-2.2-0.3-3.3-0.3c-1.1,0-2.2,0.3-3.1,0.9c-0.5,0.4-0.8,0.8-0.8,1.1
				c0,0.3,0.2,0.5,0.4,0.7c0.6,0.3,1.3,0.5,2,0.5c0.8,0,1.6-0.2,2.4-0.4c0.9-0.3,1.7-0.6,2.4-1.1V117z"/>
			<path class="st2" d="M454.6,109.2v1.9c0.9-0.7,1.9-1.3,2.9-1.8c0.6-0.3,1.3-0.4,2-0.4c1,0,2,0.4,2.8,1.1c0.6,0.5,0.9,1,0.9,1.5
				c0,0.8-0.7,1.5-1.5,1.5c0,0,0,0,0,0c-0.4,0-0.9-0.2-1.2-0.6c-0.3-0.3-0.7-0.5-1.1-0.5c-0.4,0-1,0.3-1.9,0.8
				c-1.1,0.7-2.1,1.5-3.1,2.3v4.5h4.2c0.5-0.1,1.1,0.1,1.5,0.4c0.3,0.3,0.5,0.7,0.5,1.1c0,0.4-0.2,0.8-0.5,1.1
				c-0.4,0.3-1,0.5-1.5,0.4h-9c-0.5,0.1-1.1-0.1-1.5-0.4c-0.3-0.3-0.5-0.7-0.5-1.1c0-0.4,0.2-0.8,0.5-1.1c0.4-0.3,1-0.5,1.5-0.4h1.8
				v-7.2h-1.1c-0.5,0-1.1-0.1-1.5-0.4c-0.3-0.3-0.5-0.7-0.5-1.1c0-0.4,0.2-0.8,0.5-1.1c0.4-0.3,1-0.5,1.5-0.4H454.6z"/>
			<path class="st2" d="M470.6,109.2v1c0.5-0.5,1.1-0.8,1.8-1c0.7-0.2,1.4-0.4,2.1-0.4c1.8,0,3.2,0.5,4.2,1.6
				c0.8,0.9,1.3,2.2,1.2,3.4v5.5c0.5,0,1,0.1,1.4,0.4c0.3,0.3,0.5,0.7,0.4,1.1c0,0.4-0.2,0.8-0.5,1.1c-0.4,0.3-1,0.5-1.5,0.4h-2.7
				c-0.5,0.1-1.1-0.1-1.5-0.4c-0.6-0.6-0.6-1.5,0-2.1c0,0,0,0,0,0c0.4-0.3,0.9-0.5,1.4-0.4v-5.6c0-0.5-0.1-1-0.5-1.4
				c-0.6-0.4-1.3-0.6-2.1-0.6c-0.6,0-1.2,0.1-1.8,0.4c-0.7,0.5-1.4,1-2,1.7v5.5c0.5,0,1,0,1.5,0.2c0.5,0.3,0.7,0.8,0.7,1.3
				c0,0.4-0.2,0.8-0.5,1.1c-0.4,0.3-1,0.5-1.5,0.4h-3.4c-0.5,0.1-1.1-0.1-1.5-0.4c-0.3-0.3-0.5-0.7-0.5-1.1c0-0.5,0.3-1,0.7-1.3
				c0.5-0.2,1-0.3,1.5-0.2v-7.2c-0.5,0-1-0.1-1.4-0.4c-0.3-0.3-0.5-0.7-0.4-1.1c0-0.4,0.2-0.8,0.5-1.1c0.4-0.3,1-0.5,1.5-0.4
				L470.6,109.2z"/>
			<path class="st2" d="M493.5,109.2v10.2h3.6c0.5-0.1,1.1,0.1,1.5,0.4c0.3,0.3,0.5,0.7,0.5,1.1c0,0.4-0.2,0.8-0.5,1.1
				c-0.4,0.3-1,0.5-1.5,0.4H487c-0.5,0.1-1.1-0.1-1.5-0.4c-0.3-0.3-0.5-0.7-0.5-1.1c0-0.4,0.2-0.8,0.5-1.1c0.4-0.3,1-0.5,1.5-0.4
				h3.6v-7.2h-2.4c-0.5,0-1.1-0.1-1.5-0.4c-0.6-0.6-0.6-1.5,0-2.1c0,0,0,0,0,0c0.4-0.3,1-0.5,1.5-0.4H493.5z M493.1,103.5v3.1h-3.5
				v-3.1H493.1z"/>
			<path class="st2" d="M507.4,109.2v1c0.5-0.5,1.1-0.8,1.8-1c0.7-0.2,1.4-0.4,2.1-0.4c1.8,0,3.1,0.5,4.2,1.6
				c0.8,0.9,1.3,2.2,1.2,3.4v5.5c0.5,0,1,0.1,1.4,0.4c0.3,0.3,0.5,0.7,0.4,1.1c0,0.4-0.2,0.8-0.5,1.1c-0.4,0.3-1,0.5-1.5,0.4h-2.7
				c-0.5,0.1-1.1-0.1-1.5-0.4c-0.6-0.6-0.6-1.5,0-2.1c0,0,0,0,0,0c0.4-0.3,0.9-0.5,1.4-0.4v-5.6c0-0.5-0.1-1-0.5-1.4
				c-0.6-0.4-1.3-0.6-2.1-0.6c-0.6,0-1.2,0.1-1.8,0.4c-0.7,0.5-1.4,1-2,1.7v5.5c0.5,0,1,0,1.5,0.2c0.5,0.3,0.7,0.8,0.7,1.3
				c0,0.4-0.2,0.8-0.5,1.1c-0.4,0.3-1,0.5-1.5,0.4h-3.4c-0.5,0.1-1.1-0.1-1.5-0.4c-0.3-0.3-0.5-0.7-0.5-1.1c0-0.5,0.3-1,0.7-1.3
				c0.5-0.2,1-0.3,1.5-0.2v-7.2c-0.5,0-1-0.1-1.4-0.4c-0.3-0.3-0.5-0.7-0.4-1.1c0-0.4,0.2-0.8,0.5-1.1c0.4-0.3,1-0.5,1.5-0.4
				L507.4,109.2z"/>
			<path class="st2" d="M532.1,110v-0.9h3.5c0.5-0.1,1.1,0.1,1.5,0.4c0.3,0.3,0.5,0.7,0.5,1.1c0,0.4-0.2,0.8-0.5,1.1
				c-0.4,0.3-1,0.5-1.5,0.4H535v10.8c0,1-0.2,1.9-0.7,2.7c-0.5,0.8-1.2,1.5-2,2c-0.9,0.6-2,0.8-3.1,0.8h-3.4
				c-0.5,0.1-1.1-0.1-1.5-0.4c-0.3-0.3-0.5-0.7-0.5-1.1c0-0.4,0.2-0.8,0.5-1.1c0.4-0.3,1-0.5,1.5-0.4h3.3c0.8,0,1.5-0.2,2.1-0.7
				c0.5-0.5,0.8-1.2,0.8-1.9v-1.4c-0.6,0.4-1.3,0.7-2,1c-0.7,0.2-1.4,0.3-2.1,0.3c-1.9,0.1-3.7-0.7-5.1-2c-2.7-2.8-2.7-7.2,0-10
				C525.4,108.3,529.3,108,532.1,110L532.1,110z M532.1,115.7c0-1.1-0.4-2.1-1.2-2.8c-1.6-1.6-4.2-1.6-5.8,0c-1.6,1.5-1.6,4-0.1,5.6
				c0,0,0.1,0.1,0.1,0.1c1.6,1.6,4.2,1.6,5.8,0C531.6,117.8,532.1,116.8,532.1,115.7L532.1,115.7z"/>
		</g>
	</g>
</g>
</svg>
