<?xml version="1.0" encoding="utf-8"?>
<!-- Generator: Adobe Illustrator 28.1.0, SVG Export Plug-In . SVG Version: 6.00 Build 0)  -->
<svg version="1.1" id="Layer_1" xmlns="http://www.w3.org/2000/svg" xmlns:xlink="http://www.w3.org/1999/xlink" x="0px" y="0px"
	 viewBox="0 0 592 137" style="enable-background:new 0 0 592 137;" xml:space="preserve">
<style type="text/css">
	.st0{fill:#231F20;}
	.st1{fill:#F15A29;}
	.st2{fill:#F7941D;stroke:#231F20;stroke-miterlimit:10;}
</style>
<g>
	<g>
		<polygon class="st0" points="315.2,87.3 315.2,23.6 324,23.6 324,80.9 340.3,80.9 340.3,87.3 		"/>
		<path class="st0" d="M346.2,35.2v-8.9h8.4v8.9H346.2z M346.2,87.4V41.8h8.4v45.4L346.2,87.4z"/>
		<polygon class="st0" points="369.6,87.3 360.6,41.8 369.1,41.8 374.7,78.4 380.3,41.8 388.5,41.8 379.9,87.3 		"/>
		<path class="st0" d="M406.5,87.9c-2.9,0.2-5.8-0.6-8.3-2.1c-2-1.5-3.5-3.7-4-6.1c-0.8-3.2-1.2-6.6-1.1-9.9V59.4
			c-0.1-3.4,0.3-6.8,1.2-10.1c0.6-2.4,2.1-4.6,4.1-6.1c2.4-1.5,5.3-2.2,8.1-2c3-0.2,6,0.6,8.4,2.4c1.9,1.8,3.2,4.2,3.6,6.8
			c0.6,3.5,0.9,7,0.9,10.5v3.7h-17.9V74c0,1.5,0.1,3,0.5,4.5c0.3,1,0.8,1.9,1.6,2.5c0.9,0.6,1.9,0.9,3,0.8c1,0.1,2.1-0.2,2.9-0.9
			c0.7-0.7,1.2-1.6,1.4-2.6c0.2-1.3,0.4-2.6,0.3-4v-2.8h8.3v1.7c0.2,3.8-0.8,7.6-2.9,10.8C414.5,86.6,411.2,87.9,406.5,87.9z
			 M401.5,60.2h9.7v-4.1c0-1.6-0.1-3.2-0.3-4.8c-0.1-1.1-0.6-2.1-1.3-2.9c-0.9-0.7-2-1.1-3.1-1c-1.1-0.1-2.2,0.3-3.1,0.9
			c-0.8,0.9-1.3,2-1.4,3.2c-0.3,2-0.4,4.1-0.4,6.2L401.5,60.2z"/>
		<path class="st1" d="M461.7,88c-3.7,0.2-7.4-0.8-10.5-2.8c-2.5-1.9-4.3-4.6-5.1-7.6c-1-3.5-1.5-7.1-1.5-10.7V44.3
			c-0.1-3.8,0.4-7.6,1.5-11.3c0.8-3,2.7-5.6,5.2-7.4c3.1-1.9,6.8-2.9,10.4-2.6c3.3-0.2,6.6,0.6,9.5,2.2c2.3,1.5,4.1,3.7,5,6.3
			c1.1,3.2,1.6,6.5,1.6,9.8v5h-8.4v-4.5c0-2.1-0.1-4.2-0.4-6.3c-0.1-1.6-0.8-3.1-1.9-4.2c-1.5-1.1-3.4-1.7-5.3-1.5
			c-2-0.2-3.9,0.4-5.5,1.6c-1.2,1.2-2,2.8-2.2,4.6c-0.4,2.3-0.5,4.6-0.5,6.9v25.2c-0.1,2.5,0.2,5.1,0.8,7.6c0.3,1.6,1.3,3,2.6,4
			c1.5,0.9,3.2,1.3,4.8,1.2c1.9,0.2,3.8-0.4,5.2-1.6c1.1-1.2,1.8-2.8,2-4.4c0.3-2.2,0.4-4.4,0.4-6.6v-4.7h8.4v4.7
			c0.1,3.5-0.4,6.9-1.4,10.3c-0.8,2.8-2.5,5.2-4.8,6.9C468.6,87.3,465.2,88.2,461.7,88z"/>
		<path class="st1" d="M482.8,87.3l13.5-63.7h8.6l13.6,63.7h-8.4l-2.9-16h-13l-3.1,16H482.8z M495.4,64.9H506l-5.4-28.7L495.4,64.9z
			"/>
		<path class="st1" d="M524.9,87.3V23.6h13.8c3.9-0.2,7.7,0.6,11.2,2.2c2.7,1.4,4.8,3.7,5.9,6.5c1.3,3.4,1.9,7.1,1.8,10.8v23.4
			c0.1,3.9-0.5,7.7-1.8,11.4c-1.1,2.9-3.1,5.4-5.7,7c-3.3,1.8-6.9,2.6-10.6,2.4L524.9,87.3z M533.8,80.9h5c2.5,0.2,4.9-0.4,6.9-1.9
			c1.5-1.5,2.3-3.4,2.4-5.5c0.3-2.9,0.5-5.8,0.4-8.7V44.1c0-2.7-0.2-5.4-0.7-8c-0.3-1.8-1.3-3.4-2.7-4.5c-2-1-4.3-1.5-6.6-1.3h-4.8
			L533.8,80.9z"/>
	</g>
	<g>
		<g>
			<polygon class="st0" points="62,96.9 61.9,96.7 61.9,97.2 61.9,97.4 61.9,97.9 69.9,105.9 69.9,106 70.4,106 70.6,106 71.1,106 
							"/>
			<polygon class="st0" points="119.9,31.1 119.9,31 119.4,31 119.2,31 118.7,31 136.6,49 136.8,49.1 136.8,48.6 136.8,48.4 
				136.8,47.9 			"/>
			<polygon class="st0" points="111.1,31.1 111,31 110.6,31 110.4,31 109.9,31 136.6,57.8 136.8,57.9 136.8,57.5 136.8,57.2 
				136.8,56.8 			"/>
			<polygon class="st0" points="102.2,31.1 102.2,31 101.8,31 101.5,31 101.1,31 136.6,66.6 136.8,66.8 136.8,66.3 136.8,66.1 
				136.8,65.6 			"/>
			<polygon class="st0" points="93.4,31 92.9,31 92.7,31 92.2,31 135,73.8 135.1,73.9 135.3,73.7 135.4,73.6 135.7,73.3 			"/>
			<polygon class="st0" points="84.5,31 84.1,31 83.8,31 83.4,31 130.6,78.3 130.7,78.3 130.9,78.1 131,78 131.2,77.7 			"/>
			<polygon class="st0" points="75.7,31 75.2,31 75,31 74.6,31 126.2,82.7 126.2,82.7 126.5,82.5 126.6,82.4 126.8,82.2 			"/>
			<polygon class="st0" points="66.9,31 66.4,31 66.2,31 65.7,31 121.8,87.1 121.8,87.2 122.1,86.9 122.2,86.8 122.4,86.6 			"/>
			<polygon class="st0" points="61.9,34.9 61.9,35.3 61.9,35.6 61.9,36 117.4,91.5 117.4,91.6 117.6,91.3 117.8,91.2 118,91 			"/>
			<polygon class="st0" points="61.9,43.7 61.9,44.2 61.9,44.4 61.9,44.9 112.9,95.9 113,96 113.2,95.8 113.3,95.6 113.6,95.4 			
				"/>
			<polygon class="st0" points="108.9,100.1 109.2,99.8 61.9,52.6 61.9,53 61.9,53.2 61.9,53.7 108.5,100.4 108.6,100.4 
				108.8,100.2 108.8,100.2 108.9,100.1 108.9,100.1 			"/>
			<polygon class="st0" points="61.9,61.4 61.9,61.9 61.9,62.1 61.9,62.5 104.1,104.8 104.2,104.8 104.4,104.6 104.5,104.5 
				104.7,104.3 			"/>
			<polygon class="st0" points="62,70.4 61.9,70.2 61.9,70.7 61.9,70.9 61.9,71.4 96.4,105.9 96.5,106 96.9,106 97.1,106 97.6,106 
							"/>
			<polygon class="st0" points="62,79.2 61.9,79.1 61.9,79.5 61.9,79.8 61.9,80.2 87.6,105.9 87.6,106 88.1,106 88.3,106 88.8,106 
							"/>
			<polygon class="st0" points="62,88 61.9,87.9 61.9,88.4 61.9,88.6 61.9,89.1 78.8,105.9 78.8,106 79.2,106 79.5,106 79.9,106 			
				"/>
			<polygon class="st0" points="128.7,31.1 128.7,31 128.3,31 128,31 127.6,31 136.6,40.1 136.8,40.3 136.8,39.8 136.8,39.6 
				136.8,39.1 			"/>
			
				<rect x="80.9" y="91.6" transform="matrix(0.7071 -0.7071 0.7071 0.7071 -29.1831 114.0723)" class="st0" width="84.4" height="1.3"/>
			<rect x="34.3" y="25.6" class="st0" width="130" height="1.3"/>
			<rect x="34.3" y="110.1" class="st0" width="130" height="1.3"/>
			<rect x="56.4" y="3.5" class="st0" width="1.3" height="130"/>
			<rect x="140.9" y="3.5" class="st0" width="1.3" height="130"/>
		</g>
		<g>
			<path class="st2" d="M198.5,117.3c0.1,2.6-0.9,5.2-2.7,7.1c-1.8,1.9-3.9,2.8-6.3,2.8c-2.2,0-4.2-0.9-5.8-2.4
				c-2.1-2-3.2-4.5-3.2-7.6c0-3.1,1.1-5.7,3.2-7.6c1.6-1.5,3.6-2.4,5.8-2.4c2.4,0,4.5,0.9,6.3,2.8
				C197.6,112,198.6,114.6,198.5,117.3z M195.3,117.3c0.1-1.8-0.6-3.5-1.8-4.9c-1-1.2-2.5-1.9-4-1.9c-1.6,0-3,0.7-4,1.9
				c-2.4,2.8-2.4,6.9,0,9.7c1,1.2,2.5,1.9,4,1.9c1.6,0,3-0.7,4-1.9C194.7,120.8,195.3,119.1,195.3,117.3z"/>
			<path class="st2" d="M206.1,112.5v1.1c0.6-0.5,1.2-0.9,1.9-1.1c0.7-0.3,1.5-0.4,2.3-0.4c1.9,0,3.4,0.6,4.5,1.8
				c0.9,1,1.4,2.3,1.3,3.7v6c0.5,0,1.1,0.1,1.5,0.4c0.3,0.3,0.5,0.7,0.5,1.2c0,0.4-0.2,0.9-0.5,1.2c-0.5,0.3-1.1,0.5-1.7,0.4h-2.9
				c-0.6,0.1-1.2-0.1-1.7-0.4c-0.6-0.6-0.7-1.6,0-2.3c0,0,0,0,0,0c0.4-0.3,1-0.5,1.5-0.4v-6.1c0.1-0.6-0.2-1.1-0.6-1.5
				c-0.6-0.5-1.4-0.7-2.2-0.6c-0.7,0-1.3,0.1-2,0.4c-0.8,0.5-1.5,1.1-2.1,1.8v6c0.5-0.1,1.1,0,1.6,0.2c0.5,0.3,0.8,0.8,0.8,1.4
				c0,0.4-0.2,0.9-0.5,1.2c-0.5,0.3-1.1,0.5-1.7,0.4h-3.7c-0.6,0.1-1.2-0.1-1.7-0.4c-0.3-0.3-0.5-0.7-0.5-1.2c0-0.6,0.3-1.1,0.8-1.4
				c0.5-0.2,1.1-0.3,1.6-0.2v-7.8c-0.5,0-1.1-0.1-1.5-0.4c-0.3-0.3-0.5-0.7-0.5-1.2c0-0.4,0.2-0.9,0.5-1.2c0.5-0.3,1.1-0.5,1.7-0.4
				L206.1,112.5z"/>
			<path class="st2" d="M230.9,106.4v17.1h3.9c0.6-0.1,1.2,0.1,1.7,0.4c0.3,0.3,0.5,0.7,0.5,1.2c0,0.4-0.2,0.9-0.5,1.2
				c-0.5,0.3-1.1,0.5-1.7,0.4h-10.9c-0.6,0.1-1.2-0.1-1.7-0.4c-0.3-0.3-0.5-0.7-0.5-1.2c0-0.4,0.2-0.9,0.5-1.2
				c0.5-0.3,1.1-0.5,1.7-0.4h3.9v-13.9h-2.6c-0.6,0.1-1.2-0.1-1.6-0.4c-0.6-0.6-0.7-1.6,0-2.3c0,0,0,0,0,0c0.5-0.3,1.1-0.5,1.7-0.4
				L230.9,106.4z"/>
			<path class="st2" d="M250.8,112.5v11h3.9c0.6-0.1,1.2,0.1,1.7,0.4c0.3,0.3,0.5,0.7,0.5,1.2c0,0.4-0.2,0.9-0.5,1.2
				c-0.5,0.3-1.1,0.5-1.7,0.4h-10.9c-0.6,0.1-1.2-0.1-1.7-0.4c-0.3-0.3-0.5-0.7-0.5-1.2c0-0.4,0.2-0.9,0.5-1.2
				c0.5-0.3,1.1-0.5,1.7-0.4h3.9v-7.8H245c-0.6,0.1-1.2-0.1-1.6-0.4c-0.6-0.6-0.7-1.6,0-2.3c0,0,0,0,0,0c0.5-0.3,1.1-0.5,1.7-0.4
				L250.8,112.5z M250.4,106.4v3.4h-3.8v-3.4H250.4z"/>
			<path class="st2" d="M265.9,112.5v1.1c0.6-0.5,1.2-0.9,1.9-1.1c0.7-0.3,1.5-0.4,2.3-0.4c1.9,0,3.4,0.6,4.5,1.8
				c0.9,1,1.4,2.3,1.3,3.7v6c0.5,0,1.1,0.1,1.5,0.4c0.3,0.3,0.5,0.7,0.5,1.2c0,0.4-0.2,0.9-0.5,1.2c-0.5,0.3-1.1,0.5-1.7,0.4H273
				c-0.6,0.1-1.2-0.1-1.7-0.4c-0.6-0.6-0.7-1.6,0-2.3c0,0,0,0,0,0c0.4-0.3,1-0.5,1.5-0.4v-6.1c0.1-0.6-0.2-1.1-0.6-1.5
				c-0.6-0.5-1.4-0.7-2.2-0.6c-0.7,0-1.3,0.1-2,0.4c-0.8,0.5-1.5,1.1-2.1,1.8v6c0.5-0.1,1.1,0,1.6,0.2c0.5,0.3,0.8,0.8,0.8,1.4
				c0,0.4-0.2,0.9-0.5,1.2c-0.5,0.3-1.1,0.5-1.7,0.4h-3.7c-0.6,0.1-1.2-0.1-1.7-0.4c-0.3-0.3-0.5-0.7-0.5-1.2c0-0.6,0.3-1.1,0.8-1.4
				c0.5-0.2,1.1-0.3,1.6-0.2v-7.8c-0.5,0-1.1-0.1-1.5-0.4c-0.3-0.3-0.5-0.7-0.5-1.2c0-0.4,0.2-0.9,0.5-1.2c0.5-0.3,1.1-0.5,1.7-0.4
				L265.9,112.5z"/>
			<path class="st2" d="M297.2,121.3H284c0.4,0.9,1,1.6,1.8,2c1.1,0.6,2.3,0.8,3.5,0.8c1.6-0.1,3.2-0.3,4.8-0.8
				c0.6-0.2,1.1-0.3,1.7-0.3c0.4,0,0.8,0.2,1.1,0.4c0.3,0.3,0.5,0.7,0.4,1.1c0,0.4-0.2,0.8-0.4,1.1c-0.4,0.4-1.4,0.8-3.1,1.1
				c-1.5,0.3-3.1,0.5-4.7,0.5c-2.6,0-4.6-0.7-6.2-2.2c-1.5-1.4-2.3-3.3-2.3-5.4c-0.1-2.1,0.9-4.2,2.5-5.5c1.6-1.4,3.6-2.2,5.8-2.1
				c1.2,0,2.5,0.2,3.6,0.7c0.9,0.3,1.7,0.8,2.4,1.5c0.8,0.8,1.4,1.8,1.9,2.9c0.4,0.9,0.5,1.8,0.5,2.8L297.2,121.3z M293.6,118.1
				c-0.4-0.9-1.1-1.6-1.9-2.1c-1.8-0.9-3.9-0.9-5.7,0c-0.8,0.5-1.5,1.2-1.9,2.1H293.6z"/>
			<path class="st2" d="M334,108.6c0.2-0.2,0.4-0.5,0.7-0.6c0.2-0.1,0.5-0.2,0.8-0.2c0.4,0,0.9,0.2,1.2,0.5c0.3,0.5,0.5,1.1,0.4,1.6
				v2.7c0.1,0.6-0.1,1.2-0.4,1.7c-0.3,0.3-0.7,0.5-1.2,0.5c-0.4,0-0.8-0.1-1-0.4c-0.3-0.4-0.5-0.8-0.6-1.3c0-0.4-0.2-0.7-0.4-1
				c-0.5-0.5-1.1-0.9-1.8-1.1c-0.7-0.3-1.5-0.4-2.3-0.4c-0.9,0-1.8,0.2-2.7,0.6c-0.9,0.5-1.6,1.2-2.1,2c-0.6,1-1,2.2-0.9,3.4v2.1
				c0,1.5,0.6,2.9,1.7,3.9c1.1,1,2.7,1.6,4.7,1.6c1,0,2.1-0.1,3-0.5c0.6-0.3,1.1-0.6,1.5-1.1c0.2-0.3,0.5-0.5,0.8-0.6
				c0.2-0.1,0.4-0.2,0.6-0.2c0.9,0,1.6,0.7,1.6,1.6c0,0.5-0.3,1-0.7,1.4c-0.7,0.8-1.5,1.4-2.5,1.7c-1.4,0.6-2.9,0.9-4.5,0.8
				c-1.8,0-3.6-0.4-5.1-1.2c-1.3-0.7-2.4-1.7-3.2-3c-0.9-1.3-1.3-2.9-1.3-4.4v-2.2c0-1.6,0.4-3.2,1.2-4.7c0.7-1.4,1.9-2.6,3.2-3.4
				c1.3-0.8,2.9-1.2,4.4-1.2c0.9,0,1.8,0.1,2.6,0.3C332.6,107.8,333.3,108.1,334,108.6z"/>
			<path class="st2" d="M352.8,121.6H345l-0.8,2h0.8c0.6-0.1,1.2,0.1,1.7,0.4c0.3,0.3,0.5,0.7,0.5,1.2c0,0.4-0.2,0.9-0.5,1.2
				c-0.5,0.3-1.1,0.5-1.7,0.4h-4.3c-0.6,0.1-1.2-0.1-1.7-0.4c-0.3-0.3-0.5-0.7-0.5-1.2c0-0.4,0.2-0.9,0.5-1.2
				c0.5-0.3,1.1-0.5,1.7-0.4l5.1-12.6h-2.1c-0.6,0.1-1.2-0.1-1.7-0.4c-0.6-0.6-0.7-1.7,0-2.3c0,0,0,0,0,0c0.5-0.3,1.1-0.5,1.7-0.4h7
				l6.4,15.8c0.5,0,1,0,1.5,0.2c0.5,0.3,0.7,0.8,0.7,1.4c0,0.4-0.2,0.9-0.5,1.2c-0.5,0.3-1.1,0.5-1.6,0.4h-4.3
				c-0.6,0.1-1.2-0.1-1.7-0.4c-0.3-0.3-0.5-0.7-0.5-1.2c0-0.4,0.2-0.9,0.5-1.2c0.5-0.3,1.1-0.5,1.7-0.4h0.8L352.8,121.6z
				 M351.5,118.4l-2.6-6.4l-2.6,6.4H351.5z"/>
			<path class="st2" d="M361.6,123.6V111c-0.5,0-1.1-0.1-1.5-0.4c-0.3-0.3-0.5-0.7-0.5-1.2c0-0.4,0.2-0.9,0.5-1.2
				c0.5-0.3,1.1-0.5,1.7-0.4h6.7c1,0,2.1,0.2,3.1,0.6c0.9,0.3,1.7,0.8,2.4,1.5c0.5,0.6,1,1.2,1.4,1.9c0.5,0.7,0.8,1.5,1.1,2.3
				c0.3,0.9,0.4,1.9,0.4,2.8v1.5c0,1.2-0.2,2.5-0.7,3.6c-0.4,1-1,1.9-1.8,2.6c-0.6,0.6-1.3,1.1-2.1,1.5c-1.3,0.5-2.7,0.8-4.1,0.7
				h-6.5c-0.6,0.1-1.2-0.1-1.7-0.4c-0.6-0.6-0.7-1.6,0-2.3c0,0,0,0,0,0C360.6,123.7,361.1,123.5,361.6,123.6z M364.9,123.6h3.4
				c1,0.1,2-0.1,2.9-0.5c0.8-0.4,1.5-1.1,1.9-1.8c0.5-0.9,0.7-1.9,0.6-2.9v-1.5c0-0.9-0.2-1.8-0.6-2.7c-0.4-1-1.1-1.8-2-2.5
				c-0.9-0.5-1.9-0.7-2.8-0.7h-3.4V123.6z"/>
			<path class="st2" d="M407.4,111v12.6h6.9v-3c-0.1-0.6,0.1-1.2,0.4-1.7c0.3-0.3,0.7-0.5,1.2-0.5c0.4,0,0.9,0.2,1.2,0.5
				c0.3,0.5,0.5,1.1,0.4,1.7v6.2h-15.2c-0.6,0.1-1.2-0.1-1.7-0.4c-0.3-0.3-0.5-0.7-0.5-1.2c0-0.4,0.2-0.9,0.5-1.2
				c0.5-0.3,1.1-0.5,1.7-0.4h1.9V111h-1.9c-0.6,0.1-1.2-0.1-1.7-0.4c-0.6-0.6-0.7-1.7,0-2.3c0,0,0,0,0,0c0.5-0.3,1.1-0.5,1.7-0.4h7
				c0.6-0.1,1.2,0.1,1.7,0.4c0.3,0.3,0.5,0.7,0.5,1.2c0,0.4-0.2,0.9-0.5,1.2c-0.5,0.3-1.1,0.5-1.7,0.4H407.4z"/>
			<path class="st2" d="M436.7,121.3h-13.2c0.4,0.9,1,1.6,1.8,2c1.1,0.6,2.3,0.8,3.5,0.8c1.6-0.1,3.2-0.3,4.8-0.8
				c0.6-0.2,1.1-0.3,1.7-0.3c0.4,0,0.8,0.2,1.1,0.4c0.3,0.3,0.5,0.7,0.4,1.1c0,0.4-0.2,0.8-0.5,1.1c-0.4,0.4-1.4,0.8-3.1,1.1
				c-1.5,0.3-3.1,0.5-4.7,0.5c-2.6,0-4.6-0.7-6.2-2.2c-1.5-1.4-2.3-3.3-2.3-5.4c-0.1-2.1,0.9-4.2,2.5-5.5c1.6-1.4,3.6-2.2,5.8-2.1
				c1.2,0,2.5,0.2,3.6,0.7c0.9,0.3,1.7,0.8,2.4,1.5c0.8,0.8,1.4,1.8,1.9,2.9c0.3,0.9,0.5,1.8,0.5,2.8L436.7,121.3z M433.1,118.1
				c-0.4-0.9-1.1-1.6-1.9-2.1c-1.8-0.9-3.9-0.9-5.7,0c-0.8,0.5-1.5,1.2-1.9,2.1H433.1z"/>
			<path class="st2" d="M451.5,126.8V126c-0.8,0.4-1.7,0.8-2.7,1c-0.9,0.2-1.8,0.3-2.7,0.3c-1.5,0.1-3-0.4-4.2-1.4
				c-1.1-0.9-1.6-1.9-1.6-3c0-1.3,0.7-2.6,2.1-3.8c1.4-1.2,3.3-1.7,5.7-1.7c1.1,0,2.3,0.1,3.4,0.3V117c0-0.5-0.2-0.9-0.6-1.2
				c-0.4-0.3-1.2-0.4-2.4-0.4c-1.3,0-2.5,0.2-3.7,0.6c-0.4,0.1-0.9,0.2-1.3,0.2c-0.4,0-0.8-0.1-1.1-0.4c-0.3-0.3-0.5-0.7-0.4-1.2
				c0-0.2,0-0.5,0.2-0.7c0.1-0.2,0.3-0.4,0.4-0.5c0.4-0.2,0.8-0.3,1.2-0.4c0.8-0.2,1.6-0.4,2.4-0.5c0.7-0.1,1.5-0.2,2.2-0.2
				c2,0,3.6,0.4,4.7,1.3c1.1,0.8,1.7,2.2,1.7,3.5v6.6h0.6c0.6-0.1,1.2,0.1,1.7,0.4c0.3,0.3,0.5,0.7,0.5,1.2c0,0.4-0.2,0.9-0.5,1.2
				c-0.5,0.3-1.1,0.5-1.7,0.4L451.5,126.8z M451.5,121c-1.2-0.2-2.4-0.4-3.6-0.4c-1.2,0-2.4,0.3-3.4,1c-0.6,0.4-0.9,0.8-0.9,1.2
				c0,0.3,0.2,0.6,0.4,0.7c0.7,0.4,1.4,0.6,2.2,0.5c0.9,0,1.8-0.2,2.6-0.4c0.9-0.3,1.8-0.7,2.6-1.2V121z"/>
			<path class="st2" d="M467.8,112.5v2c1-0.8,2.1-1.4,3.2-1.9c0.7-0.3,1.4-0.5,2.2-0.5c1.1,0,2.2,0.4,3,1.2c0.7,0.5,1,1.1,1,1.6
				c0,0.9-0.7,1.6-1.6,1.6c0,0,0,0,0,0c-0.5,0-0.9-0.2-1.3-0.6c-0.3-0.3-0.7-0.5-1.2-0.6c-0.4,0-1.1,0.3-2,0.8
				c-1.2,0.8-2.3,1.6-3.3,2.5v4.9h4.6c0.6-0.1,1.2,0.1,1.7,0.4c0.3,0.3,0.5,0.7,0.5,1.2c0,0.4-0.2,0.9-0.5,1.2
				c-0.5,0.3-1.1,0.5-1.7,0.4h-9.7c-0.6,0.1-1.2-0.1-1.7-0.4c-0.3-0.3-0.5-0.7-0.5-1.2c0-0.4,0.2-0.9,0.5-1.2
				c0.5-0.3,1.1-0.5,1.7-0.4h1.9v-7.8h-1.2c-0.6,0.1-1.2-0.1-1.7-0.4c-0.3-0.3-0.5-0.7-0.5-1.2c0-0.4,0.2-0.9,0.5-1.2
				c0.5-0.3,1.1-0.5,1.7-0.4H467.8z"/>
			<path class="st2" d="M485.2,112.5v1.1c0.6-0.5,1.2-0.9,1.9-1.1c0.7-0.3,1.5-0.4,2.3-0.4c1.9,0,3.4,0.6,4.5,1.8
				c0.9,1,1.4,2.3,1.3,3.7v6c0.5,0,1.1,0.1,1.5,0.4c0.3,0.3,0.5,0.7,0.5,1.2c0,0.4-0.2,0.9-0.5,1.2c-0.5,0.3-1.1,0.5-1.7,0.4h-2.9
				c-0.6,0.1-1.2-0.1-1.7-0.4c-0.6-0.6-0.7-1.6,0-2.3c0,0,0,0,0,0c0.4-0.3,1-0.5,1.5-0.4v-6.1c0-0.6-0.2-1.1-0.6-1.5
				c-0.6-0.5-1.4-0.7-2.2-0.6c-0.7,0-1.3,0.1-2,0.4c-0.8,0.5-1.5,1.1-2.1,1.8v6c0.5,0,1.1,0,1.6,0.2c0.5,0.3,0.8,0.8,0.8,1.4
				c0,0.4-0.2,0.9-0.5,1.2c-0.5,0.3-1.1,0.5-1.7,0.4h-3.7c-0.6,0.1-1.2-0.1-1.7-0.4c-0.3-0.3-0.5-0.7-0.5-1.2c0-0.6,0.3-1.1,0.7-1.4
				c0.5-0.2,1.1-0.3,1.6-0.2v-7.8c-0.5,0-1.1-0.1-1.5-0.4c-0.3-0.3-0.5-0.7-0.5-1.2c0-0.4,0.2-0.9,0.5-1.2c0.5-0.3,1.1-0.5,1.7-0.4
				L485.2,112.5z"/>
			<path class="st2" d="M509.9,112.5v11h3.9c0.6-0.1,1.2,0.1,1.7,0.4c0.3,0.3,0.5,0.7,0.5,1.2c0,0.4-0.2,0.9-0.5,1.2
				c-0.5,0.3-1.1,0.5-1.7,0.4h-10.9c-0.6,0.1-1.2-0.1-1.7-0.4c-0.3-0.3-0.5-0.7-0.5-1.2c0-0.4,0.2-0.9,0.5-1.2
				c0.5-0.3,1.1-0.5,1.7-0.4h3.9v-7.8h-2.6c-0.6,0.1-1.2-0.1-1.6-0.4c-0.6-0.6-0.7-1.6-0.1-2.3c0,0,0,0,0.1-0.1
				c0.5-0.3,1.1-0.5,1.7-0.4L509.9,112.5z M509.5,106.4v3.4h-3.8v-3.4H509.5z"/>
			<path class="st2" d="M525,112.5v1.1c0.6-0.5,1.2-0.9,1.9-1.1c0.7-0.3,1.5-0.4,2.3-0.4c1.9,0,3.4,0.6,4.5,1.8
				c0.9,1,1.4,2.3,1.3,3.7v6c0.5,0,1.1,0.1,1.5,0.4c0.3,0.3,0.5,0.7,0.5,1.2c0,0.4-0.2,0.9-0.5,1.2c-0.5,0.3-1.1,0.5-1.7,0.4h-2.9
				c-0.6,0.1-1.2-0.1-1.7-0.4c-0.6-0.6-0.6-1.7,0-2.3c0,0,0,0,0,0c0.4-0.3,1-0.5,1.5-0.4v-6.1c0.1-0.6-0.2-1.1-0.6-1.5
				c-0.6-0.5-1.4-0.7-2.2-0.6c-0.7,0-1.3,0.1-2,0.4c-0.8,0.5-1.5,1.1-2.1,1.8v6c0.5-0.1,1.1,0,1.6,0.2c0.5,0.3,0.8,0.8,0.8,1.4
				c0,0.4-0.2,0.9-0.5,1.2c-0.5,0.3-1.1,0.5-1.7,0.4h-3.7c-0.6,0.1-1.2-0.1-1.7-0.4c-0.3-0.3-0.5-0.7-0.5-1.2c0-0.6,0.3-1.1,0.8-1.4
				c0.5-0.2,1.1-0.3,1.6-0.2v-7.8c-0.5,0-1.1-0.1-1.5-0.4c-0.3-0.3-0.5-0.7-0.5-1.2c0-0.4,0.2-0.9,0.5-1.2c0.5-0.3,1.1-0.5,1.7-0.4
				L525,112.5z"/>
			<path class="st2" d="M551.8,113.5v-1h3.8c0.6-0.1,1.2,0.1,1.7,0.4c0.3,0.3,0.5,0.7,0.5,1.2c0,0.4-0.2,0.9-0.5,1.2
				c-0.5,0.3-1.1,0.5-1.7,0.4H555v11.7c0,1-0.2,2.1-0.7,3c-0.5,0.9-1.3,1.6-2.2,2.2c-1,0.6-2.2,0.9-3.3,0.9h-3.6
				c-0.6,0.1-1.2-0.1-1.7-0.4c-0.3-0.3-0.5-0.7-0.5-1.2c0-0.4,0.2-0.9,0.5-1.2c0.5-0.3,1.1-0.5,1.7-0.4h3.5c0.8,0.1,1.7-0.2,2.3-0.8
				c0.5-0.5,0.8-1.3,0.8-2v-1.6c-0.7,0.4-1.4,0.8-2.2,1c-0.7,0.2-1.5,0.3-2.3,0.3c-2,0.1-4-0.7-5.5-2.2c-2.9-3-2.9-7.8,0-10.8
				C544.5,111.6,548.7,111.3,551.8,113.5L551.8,113.5z M551.8,119.7c0-1.2-0.5-2.3-1.3-3.1c-1.7-1.7-4.6-1.7-6.3,0
				c-1.7,1.6-1.8,4.3-0.1,6c0,0,0.1,0.1,0.1,0.1c1.7,1.7,4.6,1.7,6.3,0C551.3,121.9,551.8,120.8,551.8,119.7L551.8,119.7z"/>
		</g>
	</g>
</g>
</svg>
